<svg xmlns="http://www.w3.org/2000/svg" width="918" height="773" fill="none"><g clip-path="url(#a)"><path fill="#F4FCFA" d="M468.03 773c213.458 0 386.5-173.042 386.5-386.5S681.488 0 468.03 0 81.53 173.042 81.53 386.5 254.572 773 468.03 773Z"/><path fill="#fff" d="M682.53 218h-237v367h237V218Z"/><path stroke="#000" stroke-miterlimit="10" d="M398.03 442h243M398.03 466h243M398.03 490h243M398.03 514h243"/><path fill="#F2F2F2" d="M564.03 387c34.242 0 62-27.758 62-62 0-34.242-27.758-62-62-62-34.242 0-62 27.758-62 62 0 34.242 27.758 62 62 62Z"/><path fill="#628B82" d="M739.03 348.5h-98v91h98v-91Z" opacity=".7"/><path fill="#fff" d="M655.44 395.278v-1.938l15.603-7.947v3.101l-11.968 5.766.097-.194v.485l-.097-.194 11.968 5.766v3.102l-15.603-7.947Zm40.028-17.251-7.995 29.704h-2.617l7.996-29.704h2.616Zm29.41 17.251-15.603 7.947v-3.102l11.969-5.766-.097.194v-.485l.097.194-11.969-5.766v-3.101l15.603 7.947v1.938Z"/><path stroke="#000" stroke-miterlimit="10" d="M565.03 37.5h-529v348h529v-348ZM36.03 56h529"/><path stroke="#000" stroke-miterlimit="10" d="M233.53 87h-159v159h159V87ZM264.03 101h243M264.03 125h243M264.03 149h243M264.03 173h243"/><path fill="#628B82" d="m154.03 129-43.3 75h86.6l-43.3-75Z" opacity=".44"/><path fill="#F9AB51" d="M47.53 51.5a4.5 4.5 0 1 0 0-9 4.5 4.5 0 0 0 0 9Z"/><path fill="#97C2B8" d="M63.03 51.5a4.5 4.5 0 1 0 0-9 4.5 4.5 0 0 0 0 9Z"/><path fill="#628B82" d="M78.53 51.5a4.5 4.5 0 1 0 0-9 4.5 4.5 0 0 0 0 9Z"/><path fill="#F9AB51" d="m269.03 321.25 15-13.25h-15.3l.3 13.25Z"/><path fill="#F9AB51" d="M349.35 258.5h-74.64c-11.421 0-20.68 9.259-20.68 20.68v9.64c0 11.421 9.259 20.68 20.68 20.68h74.64c11.421 0 20.68-9.259 20.68-20.68v-9.64c0-11.421-9.259-20.68-20.68-20.68Z"/><path fill="#fff" d="M296.53 288.5a4.5 4.5 0 1 0 0-9 4.5 4.5 0 0 0 0 9ZM312.03 288.5a4.5 4.5 0 1 0 0-9 4.5 4.5 0 0 0 0 9ZM327.53 288.5a4.5 4.5 0 1 0 0-9 4.5 4.5 0 0 0 0 9Z"/><path fill="#97C2B8" d="m744.03 171.25-15-13.25h15.3l-.3 13.25Z"/><path fill="#97C2B8" d="M663.71 159.5h74.64c11.421 0 20.68-9.259 20.68-20.68v-9.64c0-11.421-9.259-20.68-20.68-20.68h-74.64c-11.421 0-20.68 9.259-20.68 20.68v9.64c0 11.421 9.259 20.68 20.68 20.68Z"/><path fill="#fff" d="M716.53 138.5a4.5 4.5 0 1 0 0-9 4.5 4.5 0 0 0 0 9ZM701.03 138.5a4.5 4.5 0 1 0 0-9 4.5 4.5 0 0 0 0 9ZM685.53 138.5a4.5 4.5 0 1 0 0-9 4.5 4.5 0 0 0 0 9Z"/><path fill="#F98B67" d="M736.03 47a4.5 4.5 0 1 0 0-9 4.5 4.5 0 0 0 0 9ZM745.53 65.5a4.5 4.5 0 1 0 0-9 4.5 4.5 0 0 0 0 9ZM642.03 250.5a7 7 0 1 0 0-14 7 7 0 0 0 0 14ZM683.03 274.5a7 7 0 1 0 0-14 7 7 0 0 0 0 14ZM53.03 282.5a7 7 0 1 0 0-14 7 7 0 0 0 0 14Z"/><path fill="#1F161E" d="M658.23 595.25v-1l-2.4-3-5.55-6.74-5.9-7.14s-5.68-3.93-7.14-4.61c-5.32-2.46-10.56-4.34-16.82-4.34-3.85 0-18.24.58-18.27 3 0 3.59 20.15 17.18 34.93 23.78 6.49.05 21.15.05 21.15.05Z"/><path fill="#FBDC8E" d="M655.18 595.25c-20.51-15.78-62.38-101.85-51.64-133.75 22.86 11.65 47.94 51.82 59.77 85.74a60.875 60.875 0 0 1 1.53 6.71l4.8 22 1.16 19.33-15.62-.03Z"/><path fill="#97C2B8" d="M669.18 595.25c-6.92-5.62-9.13-22.26-9.19-28.47-.11-11.59 1.67-20.13 11.58-32.88 9.91-12.75 7.27-33.9 20.43-48.17 13.16-14.27 21.88-18.25 37.5-18.25 15.62 0 20.58 25.32 20.5 31.69-.18 25.7-16.37 29.34-26.25 41.6-7.17 8.9-7.73 16.18-9.9 20.34-11.64 22.42-21.1 30.85-28.1 34.14"/><path stroke="#fff" stroke-linecap="round" stroke-linejoin="round" stroke-width=".4" d="M673 593.39c.2-43.83 46.39-109.66 56.26-119.53"/><path stroke="#fff" stroke-linecap="round" stroke-linejoin="round" stroke-width=".4" d="M675.49 573.47c-5.11-5.57-9.76-21.36-9.06-25.46M662.4 591.47c-7.24-12.83-41.59-75.39-54.4-121.47"/><path fill="#B37361" d="M685.79 595.25h21.52l-18 67h-48.13l-17.71-67h62.32Z"/><path stroke="#fff" stroke-linecap="round" stroke-linejoin="round" stroke-width=".4" d="M609.19 572.78c10.49.72 23.69 1.2 33 7.55"/><path fill="#1F161E" d="M775.47 321c-2.53 12.07-20.91 161.79-14.9 197.55 6.01 35.76 104 110.69 108.29 112 5-3.67 12.36-15.7 12.36-15.7s-71.85-83.29-73.22-86.63C806.63 524.88 823.74 332 823.74 332l-48.27-11Z"/><path fill="#FBDC8E" d="m892.49 348.25-73.31 299.01h-24.69l25.02-311.93 72.98 12.92Z"/><path fill="#F9AB51" d="M840.42 177.05c10.12 0 62.91 1.71 72.45 20.29 9.54 18.58.55 104.46-5.38 107.79-3.2 1.79-4.07.05-5 3.69-.93 3.64-10 39.43-10 39.43-5.76.16-89.74-12.49-117-27.28.16-4.11 1.48-14.8 1.48-15.62-3.62 1.48-8 1.79-9.2 0-10.64-16.11 5.22-100.1 16.6-117 4.84-7.25 39.81-11.25 56.05-11.3Z"/><path fill="#1F161E" d="M875.18 307.45c2.48 0 23.83 15 22 22.37 1.5-5.92 6.22-24.21 6.22-24.21-2.03.39-26.4 1.87-28.22 1.84Z"/><path fill="#F8CDBA" d="M853.49 186.85c0 3.26-25.71 3.26-25.71 0v-33h25.71v33Z"/><path fill="#1F161E" d="M838.74 161.66c2 0 14.75 5.64 14.75 8.78v-16.59c-3.18 0-14.75 7.81-14.75 7.81Z"/><path fill="#F8CDBA" d="M835.22 164.07c13.813 0 25.01-11.197 25.01-25.01 0-13.813-11.197-25.01-25.01-25.01-13.813 0-25.01 11.197-25.01 25.01 0 13.813 11.197 25.01 25.01 25.01Z"/><path fill="#1F161E" d="M826.76 102.5c-12.84 0-20.84 8.06-20.84 18.39 0 8.59 2.08 13.45 4.53 14.68 1.55-8.34 4.92-12.2 7.71-13.86 2.17 1.66 5.88 5.68 10.84 6.92 4.96 1.24 17.87 1 28.3 8.58 3.41-3.1 6.81-7.13 6.81-11.88 0-4.75-2.1-10.71-14.45-14.15-8.16-2.27-9.3-8.68-22.9-8.68Z"/><path fill="#FA9E9F" d="M811.85 146.49c2.419 0 4.38-1.021 4.38-2.28s-1.961-2.28-4.38-2.28c-2.419 0-4.38 1.021-4.38 2.28s1.961 2.28 4.38 2.28ZM839.4 146.49c2.419 0 4.38-1.021 4.38-2.28s-1.961-2.28-4.38-2.28c-2.419 0-4.38 1.021-4.38 2.28s1.961 2.28 4.38 2.28Z"/><path stroke="#1F161E" stroke-linecap="round" stroke-miterlimit="10" d="M822.55 139.48c-.82 1.17-5 6.08-.59 8.06M830.79 153.28c1.32 0 3.35-1.64 4.42-3.11"/><path fill="#F8CDBA" d="M858.34 147.72a5.78 5.78 0 1 0 0-11.56 5.78 5.78 0 0 0 0 11.56Z"/><path stroke="#1F161E" stroke-linecap="round" stroke-miterlimit="10" d="M875.76 226.26c-.45 5.52-2.21 32.8-1.55 36.39-8.39 2.92-85.21 39.35-98.5 43.35M786.54 217.65c-1.77 6.18-7.73 34.23-3.54 47.26"/><path stroke="#1F161E" stroke-linecap="round" stroke-miterlimit="10" d="M806.15 293.24c4 2.81 42.34 19.78 95.35 13.38"/><path fill="#F8CDBA" d="M802.48 264.91c2.57.41-5.81-6.28-10.56-3.79-4.75 2.49-11.15 13.76-9.84 16.37a3.384 3.384 0 0 0 3.593 2.173 3.39 3.39 0 0 0 1.407-.513c1.29-.83 10.92-14.96 15.4-14.24Z"/><path fill="#1F161E" d="M880.4 616.08c1.37 1 13.52 9.22 13.62 14.4.1 5.18-11.32 22.35-13.62 22.84-2.3.49-3.94-1.45-3.94-4.92 0-3.47 4.34-9.55 3.76-12.25-.58-2.7-6.19-7.64-9.07-7.73M816.84 647.26c0 2.38 1.38 17.32-1.38 18.71-2.76 1.39-33.22 2.21-34.6.83-1.38-1.38-2.22-4.29-1-5.12 1.22-.83 13-3.19 14.6-4.29 1.6-1.1 3.81-7 3-10.13"/><path fill="#B37361" d="M219.39 536.34H26.01v98.09h193.38v-98.09Z"/><path fill="#1F161E" d="M314.66 490.37c.84 5 15.1 119.31 17.41 121.2 2.31 1.89 26.84 6.08 28.94 2.94.42-5 1-84.72 2.3-91.85"/><path fill="#628B82" d="M38.76 466.52c-9.89-4.87 10.73 91.67 65 91.67 54.27 0 145.62-82.67 160.41-82.67 32.65 0 109.94 64.1 116 64.1 4.64-4.64 13.92-12.76 13.92-16s-74-125-129.37-125c-21.47.03-203.63 78.93-225.96 67.9Z"/><path fill="#1F161E" d="M69.3 468.16c10.85-2.46 24.35-8.83 36.3-15.34-32.51 10.63-59.15 17.5-66.84 13.7-5.24-2.58-1.92 23.26 10.4 48.15-2.23-4.81-5.41-40.67 20.14-46.51Z"/><path fill="#97C2B8" d="M93.22 298.8c8.55.23 53.06-1.08 65.26 10.54 9.05 8.62 37.19 82.75 41.53 108.78C181.11 427.73 44.79 493 2.6 464.3 1.67 442 6 353.35 33.59 306.86c10.09-6.72 51.41-8.27 59.63-8.06Z"/><path fill="#F8CDBA" d="M110.56 277.59h-26v27.94c0 7 26 6.94 26 0v-27.94Z"/><path fill="#1F161E" d="M84.56 294.46c0-3.1 8.59-10.89 13.9-10.61.13-3.45-12.13-8.41-12.13-8.41l-1.77 4.77v14.25Z"/><path fill="#1F161E" d="M137.79 277.59c.584-2.704.879-5.463.88-8.23 0-20.62-16.11-37.34-36-37.34s-36 16.72-36 37.34c.001 2.767.296 5.526.88 8.23h70.24Z"/><path fill="#F8CDBA" d="M128.3 252.42c-4.41-.67-8.81-4.14-11.88-6.41C98.92 258.83 87.71 259 86.5 259c-1.21 0-6.14 7.08-8.41 7.88l-.2-.12a27.294 27.294 0 0 0 12.304 18.228 27.298 27.298 0 0 0 21.751 3.241 27.307 27.307 0 0 0 17.084-13.848 27.29 27.29 0 0 0 1.331-21.951 8.353 8.353 0 0 1-2.06-.01Z"/><path fill="#1F161E" d="M83.17 236.67c5.865 0 10.62-4.755 10.62-10.62 0-5.865-4.755-10.62-10.62-10.62-5.865 0-10.62 4.755-10.62 10.62 0 5.865 4.755 10.62 10.62 10.62Z"/><path stroke="#1F161E" stroke-linecap="round" stroke-miterlimit="10" d="M87.9 258.43a4.466 4.466 0 0 0-4.259 4.465 4.47 4.47 0 0 0 4.259 4.465M121.94 259c1.31 1.75 4.68 4.82 0 8.07M107.75 269.41c0 1.31.56 4.44 3.37 5.25"/><path fill="#FA9E9F" d="M99.04 269.72c2.275 0 4.12-.958 4.12-2.14 0-1.182-1.845-2.14-4.12-2.14-2.275 0-4.12.958-4.12 2.14 0 1.182 1.845 2.14 4.12 2.14ZM129.67 269.72c2.275 0 4.12-.958 4.12-2.14 0-1.182-1.845-2.14-4.12-2.14-2.275 0-4.12.958-4.12 2.14 0 1.182 1.845 2.14 4.12 2.14Z"/><path fill="#F8CDBA" d="m157.54 376.07 27.79-7.15C188 373.46 201 418.07 201 418.07l-42.9 18.08c.56-8.45 2.25-47.15-.56-60.08Z"/><path stroke="#1F161E" stroke-linecap="round" stroke-miterlimit="10" d="M60.1 369.08c0 3.36-2.83 16.15-4.5 22.16M157.54 376.07c-.67-5.29-4.59-35.1-11.26-50.79"/><path fill="#F8CDBA" d="m157.54 376.07 27.79-7.15C188 373.46 201 418.07 201 418.07l-42.9 18.08c.56-8.45 2.25-47.15-.56-60.08Z"/><path fill="#1F161E" d="M381 537.26c.62 1 8.9 11.16 11.83 11.27 2.93.11 20.72-11.94 19.94-14.53-.78-2.59-11.94-.9-13.86-1.81S392.7 527 392 525.1M337.25 612.63c-.21 1.11-1.34 14.2.69 16.32 2.03 2.12 23.2 5.8 24.43 3.39 1.23-2.41-8-8.94-8.71-10.92-.71-1.98-.86-8 0-9.88"/><path fill="#969696" d="M304.06 420.87h-94.17l22.42-59.41h94.17l-22.42 59.41Z"/><path fill="#969696" d="M225.59 418.63h-94.17v2.24h94.17v-2.24Z"/><path fill="#F8CDBA" d="M55.6 391.24C53.79 398 45 427 48.58 432s93.24-6.33 117.23-13.8c6.11-2 10.64-7.24 13.35-7.92a14.31 14.31 0 0 1 16.16 10.22c-9.58 4.64-147.9 75.26-192.72 43.83-8.47-6.07 6.39-80.07 7.07-83.8 7.57.91 45.93 10.71 45.93 10.71Z"/><path stroke="#1F161E" stroke-linecap="round" stroke-miterlimit="10" d="M158.82 420c2.7-.64 5.06-1.27 7-1.87 6.11-2 10.64-7.24 13.35-7.92a14.31 14.31 0 0 1 16.16 10.22"/></g><defs><clipPath id="a"><path fill="#fff" d="M0 0h917.04v773H0z"/></clipPath></defs></svg>